<?xml version="1.0" encoding="utf-8"?>
<!-- Generator: Adobe Illustrator 17.0.0, SVG Export Plug-In . SVG Version: 6.00 Build 0)  -->
<!DOCTYPE svg PUBLIC "-//W3C//DTD SVG 1.0//EN" "http://www.w3.org/TR/2001/REC-SVG-20010904/DTD/svg10.dtd">
<svg version="1.0" id="Layer_1" xmlns="http://www.w3.org/2000/svg" xmlns:xlink="http://www.w3.org/1999/xlink" x="0px" y="0px"
	 width="2625.236px" height="675.915px" viewBox="0 0 2625.236 675.915" enable-background="new 0 0 2625.236 675.915"
	 xml:space="preserve">
<g>
	<g>
		<path fill="#00284F" d="M36.519,591.511c0,27.346,22.211,49.515,49.557,49.515l11.835,0.017V159.576h60.802l0,517.986l-65.715,0
			l-12.785,0C35.913,677.562,0,641.649,0,597.348L0,80.213C0,35.913,35.913,0,80.213,0H242.54v516.735h-60.943l0.009-480.216H86.05
			c-27.346,0-49.515,22.211-49.515,49.557L36.519,591.511z"/>
		<path fill="#00284F" d="M471.408,591.511c0,27.346-22.211,49.515-49.557,49.515l-11.835,0.017V159.576h-60.802l0,517.986l65.715,0
			l12.785,0c44.3,0,80.213-35.913,80.213-80.213V80.213c0-44.3-35.913-80.213-80.213-80.213L265.387,0v516.735h60.943
			l-0.009-480.216h95.555c27.346,0,49.515,22.211,49.515,49.557L471.408,591.511z"/>
	</g>
	<g>
		<path fill="#00284F" d="M740.429,112.049v313.586c0,10.035,3.76,18.683,11.28,25.944c7.52,7.273,16.286,10.904,26.32,10.904h30.08
			v30.08h-67.68c-9.024,0-17.672-1.751-25.944-5.264c-8.272-3.502-15.416-8.272-21.432-14.288
			c-6.016-6.016-10.787-13.031-14.288-21.056c-3.513-8.014-5.264-16.544-5.264-25.568V112.049h-66.928v-30.08h44.368
			c6.51,0,11.903-2.127,16.168-6.392c4.254-4.254,6.392-9.4,6.392-15.416V0h66.928v81.969h67.68v30.08H740.429z"/>
		<path fill="#00284F" d="M1183.055,425.635c0,18.553-6.521,34.345-19.552,47.376c-13.042,13.043-28.835,19.552-47.376,19.552
			H933.389c-18.553,0-34.346-6.51-47.376-19.552c-13.043-13.031-19.552-28.823-19.552-47.376V149.649
			c0-19.047,6.51-35.086,19.552-48.128c13.031-13.031,28.823-19.552,47.376-19.552h182.737c18.542,0,34.334,6.521,47.376,19.552
			c13.031,13.043,19.552,29.081,19.552,48.128V425.635z M1116.126,149.649c0-10.528-3.643-19.423-10.904-26.696
			c-7.273-7.262-16.168-10.904-26.696-10.904H970.237c-10.035,0-18.683,3.643-25.944,10.904
			c-7.273,7.273-10.904,16.168-10.904,26.696v275.986c0,10.035,3.631,18.683,10.904,25.944c7.262,7.273,15.91,10.904,25.944,10.904
			h108.289c10.528,0,19.423-3.631,26.696-10.904c7.262-7.262,10.904-15.91,10.904-25.944V149.649z"/>
		<path fill="#00284F" d="M1852.785,492.563h-463.234c-17.555,0-33.969-3.255-49.256-9.776
			c-15.299-6.51-28.705-15.534-40.232-27.072c-11.539-11.527-20.563-24.934-27.072-40.232c-6.521-15.287-9.776-31.702-9.776-49.256
			V134.609c0-6.51-2.139-11.903-6.392-16.168c-4.265-4.254-9.4-6.392-15.416-6.392v-30.08h89.489v321.106v0.752
			c0,16.051,5.758,29.833,17.296,41.36c11.527,11.539,25.31,17.296,41.36,17.296h124.081V134.609c0-6.51-2.256-11.903-6.768-16.168
			c-4.512-4.254-9.776-6.392-15.792-6.392v-30.08h89.489v358.706c0,6.016,2.127,11.163,6.392,15.416
			c4.254,4.265,9.647,6.392,16.168,6.392h160.177V134.609c0-6.51-2.139-11.903-6.392-16.168c-4.265-4.254-9.659-6.392-16.168-6.392
			v-30.08h89.489v358.706c0,6.016,2.255,11.163,6.767,15.416c4.512,4.265,9.776,6.392,15.792,6.392V492.563z"/>
		<path fill="#00284F" d="M2227.73,246.658c0,18.553-6.521,34.346-19.552,47.376c-13.043,13.043-28.835,19.552-47.376,19.552h-37.6
			h-145.137v54.144v35.344v0.752c0,16.051,5.757,29.833,17.296,41.36c11.527,11.539,25.31,17.296,41.36,17.296h161.681v30.08
			h-162.433c-17.555,0-33.84-3.384-48.88-10.152c-15.04-6.768-28.2-15.792-39.48-27.072c-11.28-11.28-20.187-24.558-26.696-39.856
			c-6.521-15.287-9.776-31.702-9.776-49.256V149.649c0-19.047,6.51-34.968,19.552-47.752c13.031-12.784,28.823-19.176,47.376-19.176
			h182.737c18.542,0,34.334,6.392,47.376,19.176c13.031,12.784,19.552,28.705,19.552,47.752V246.658z M2149.898,272.602
			c7.261-7.262,10.904-15.91,10.904-25.944v-97.009c0-10.528-3.643-19.423-10.904-26.696c-7.273-7.262-16.168-10.904-26.696-10.904
			h-108.289c-10.035,0-18.683,3.643-25.944,10.904c-7.273,7.273-10.904,16.168-10.904,26.696v133.857h145.889
			C2133.977,283.506,2142.625,279.875,2149.898,272.602z"/>
		<path fill="#00284F" d="M2605.684,101.521c13.031,13.043,19.552,29.081,19.552,48.128h-66.928
			c0-10.528-3.643-19.423-10.904-26.696c-7.273-7.262-16.168-10.904-26.696-10.904h-87.233c-14.546,0-27.201,4.771-37.976,14.288
			c-10.787,9.529-17.426,21.315-19.928,35.344v278.994c0,6.016,2.127,11.163,6.392,15.416c4.253,4.265,9.647,6.392,16.168,6.392
			v30.08h-112.049v-30.08c6.016,0,11.151-2.127,15.416-6.392c4.253-4.254,6.639-9.4,7.144-15.416V133.857
			c-0.505-6.016-2.891-11.151-7.144-15.416c-4.265-4.254-9.4-6.392-15.416-6.392v-30.08h89.489v39.104
			c4.007-11.527,11.021-20.927,21.056-28.2c10.023-7.262,21.303-10.904,33.84-10.904h127.841
			C2576.849,81.969,2592.641,88.49,2605.684,101.521z"/>
	</g>
	<g>
		<path fill="#00284F" d="M673.501,675.915V573.362h16.618v102.553H673.501z"/>
		<path fill="#00284F" d="M769.765,675.915V573.362h29.044l31.14,87.881h2.246v-87.881h16.618v102.553h-28.445l-31.889-88.031
			h-2.096v88.031H769.765z"/>
		<path fill="#00284F" d="M918.577,588.184v-14.822h74.856v14.822h-28.894v87.731h-16.767v-87.731H918.577z"/>
		<path fill="#00284F" d="M1063.197,675.915V573.362h64.676v14.522h-48.057v29.045h39.074v14.372h-39.074v29.942h48.057v14.671
			H1063.197z"/>
		<path fill="#00284F" d="M1218.596,639.385v36.53h-16.618V573.362h38.925c23.154,0,34.733,10.88,34.733,32.637
			c0,14.574-5.59,24.455-16.767,29.643l16.918,40.273h-18.265l-14.822-36.53H1218.596z M1258.57,606.149
			c0-12.276-5.891-18.415-17.666-18.415h-22.307v37.279h22.606c5.989,0,10.379-1.721,13.175-5.165
			C1257.17,616.405,1258.57,611.838,1258.57,606.149z"/>
		<path fill="#00284F" d="M1350.492,675.915V573.362h29.044l31.141,87.881h2.245v-87.881h16.619v102.553h-28.446l-31.889-88.031
			h-2.095v88.031H1350.492z"/>
		<path fill="#00284F" d="M1500.352,675.915l25.302-102.553h33.087l25.45,102.553h-16.768l-5.539-22.008h-39.374l-5.54,22.008
			H1500.352z M1538.528,587.286l-12.725,51.95h32.787l-12.575-51.95H1538.528z"/>
		<path fill="#00284F" d="M1638.838,588.184v-14.822h74.857v14.822H1684.8v87.731h-16.769v-87.731H1638.838z"/>
		<path fill="#00284F" d="M1783.458,675.915V573.362h16.617v102.553H1783.458z"/>
		<path fill="#00284F" d="M1949.412,664.986c-6.138,8.383-16.943,12.575-32.412,12.575c-15.471,0-26.3-4.215-32.487-12.651
			c-6.19-8.432-9.282-21.682-9.282-39.748c0-18.064,3.118-31.489,9.357-40.273c6.236-8.782,17.041-13.175,32.412-13.175
			c15.369,0,26.149,4.368,32.338,13.099c6.187,8.736,9.282,22.183,9.282,40.348C1958.619,643.329,1955.551,656.602,1949.412,664.986
			z M1897.537,654.207c3.391,5.891,9.881,8.833,19.462,8.833s16.042-2.893,19.388-8.683c3.343-5.788,5.016-15.496,5.016-29.119
			c0-13.624-1.721-23.529-5.165-29.718c-3.443-6.187-9.858-9.282-19.238-9.282c-9.382,0-15.821,3.095-19.313,9.282
			c-3.494,6.189-5.239,16.044-5.239,29.568C1892.447,638.614,1894.143,648.319,1897.537,654.207z"/>
		<path fill="#00284F" d="M2033.923,675.915V573.362h29.043l31.141,87.881h2.245v-87.881h16.618v102.553h-28.446l-31.888-88.031
			h-2.096v88.031H2033.923z"/>
		<path fill="#00284F" d="M2183.784,675.915l25.302-102.553h33.087l25.45,102.553h-16.767l-5.54-22.008h-39.374l-5.539,22.008
			H2183.784z M2221.96,587.286l-12.726,51.95h32.787l-12.575-51.95H2221.96z"/>
		<path fill="#00284F" d="M2395.775,675.915h-57.489V573.362h16.617v87.731h40.871V675.915z"/>
	</g>
</g>
</svg>
